<svg width="161" height="20" viewBox="0 0 161 20" fill="none" xmlns="http://www.w3.org/2000/svg">
<path d="M4.47949 19.0017H0.905273V1.8689H10.7256V4.84546H4.47949V9.26343H10.292V12.2283H4.47949V19.0017ZM19.1631 5.63062C20.9209 5.63062 22.2686 6.01343 23.2061 6.77905C24.1436 7.54468 24.6123 8.70874 24.6123 10.2712V19.0017H22.1162L21.4248 17.2205H21.3311C20.9561 17.6892 20.5732 18.072 20.1826 18.3689C19.792 18.6658 19.3428 18.8845 18.835 19.0251C18.3271 19.1658 17.71 19.2361 16.9834 19.2361C16.21 19.2361 15.5146 19.0876 14.8975 18.7908C14.2881 18.4939 13.8076 18.0408 13.4561 17.4314C13.1045 16.8142 12.9287 16.033 12.9287 15.0876C12.9287 13.697 13.417 12.6736 14.3936 12.0173C15.3701 11.3533 16.835 10.9861 18.7881 10.9158L21.0615 10.8455V10.2712C21.0615 9.58374 20.8818 9.07983 20.5225 8.75952C20.1631 8.43921 19.6631 8.27905 19.0225 8.27905C18.3896 8.27905 17.7686 8.3689 17.1592 8.54858C16.5498 8.72827 15.9404 8.95483 15.3311 9.22827L14.1475 6.81421C14.8428 6.44702 15.6201 6.15796 16.4795 5.94702C17.3467 5.73608 18.2412 5.63062 19.1631 5.63062ZM21.0615 12.9314L19.6787 12.9783C18.5225 13.0095 17.7178 13.2166 17.2646 13.5994C16.8193 13.9822 16.5967 14.4861 16.5967 15.1111C16.5967 15.658 16.7568 16.0486 17.0771 16.283C17.3975 16.5095 17.8154 16.6228 18.3311 16.6228C19.0967 16.6228 19.7412 16.3962 20.2646 15.9431C20.7959 15.49 21.0615 14.8455 21.0615 14.0095V12.9314ZM37.4443 15.1111C37.4443 16.0017 37.2334 16.7556 36.8115 17.3728C36.3975 17.9822 35.7764 18.447 34.9482 18.7673C34.1201 19.0798 33.0889 19.2361 31.8545 19.2361C30.9404 19.2361 30.1553 19.1775 29.499 19.0603C28.8506 18.9431 28.1943 18.7478 27.5303 18.4744V15.5212C28.2412 15.8416 29.0029 16.1072 29.8154 16.3181C30.6357 16.5212 31.3545 16.6228 31.9717 16.6228C32.667 16.6228 33.1631 16.5212 33.46 16.3181C33.7646 16.1072 33.917 15.8337 33.917 15.4978C33.917 15.2791 33.8545 15.0837 33.7295 14.9119C33.6123 14.7322 33.3545 14.533 32.9561 14.3142C32.5576 14.0876 31.9326 13.7947 31.0811 13.4353C30.2607 13.0916 29.585 12.7439 29.0537 12.3923C28.5303 12.0408 28.1396 11.6267 27.8818 11.1501C27.6318 10.6658 27.5068 10.0525 27.5068 9.3103C27.5068 8.09937 27.9756 7.18921 28.9131 6.57983C29.8584 5.96265 31.1201 5.65405 32.6982 5.65405C33.5107 5.65405 34.2842 5.73608 35.0186 5.90015C35.7607 6.06421 36.5225 6.32593 37.3037 6.6853L36.2256 9.26343C35.5771 8.98218 34.9639 8.75171 34.3857 8.57202C33.8154 8.39233 33.2334 8.30249 32.6396 8.30249C32.1162 8.30249 31.7217 8.3728 31.4561 8.51343C31.1904 8.65405 31.0576 8.8689 31.0576 9.15796C31.0576 9.3689 31.124 9.5564 31.2568 9.72046C31.3975 9.88452 31.6631 10.0681 32.0537 10.2712C32.4521 10.4666 33.0342 10.7205 33.7998 11.033C34.542 11.3376 35.1865 11.658 35.7334 11.9939C36.2803 12.322 36.7021 12.7322 36.999 13.2244C37.2959 13.7087 37.4443 14.3376 37.4443 15.1111ZM43.8076 0.767334V4.48218C43.8076 5.13062 43.7842 5.7478 43.7373 6.33374C43.6982 6.91968 43.667 7.33374 43.6436 7.57593H43.8311C44.1123 7.1228 44.4443 6.75562 44.8271 6.47437C45.2178 6.19312 45.6475 5.98608 46.1162 5.85327C46.585 5.72046 47.0889 5.65405 47.6279 5.65405C48.5732 5.65405 49.3975 5.82202 50.1006 6.15796C50.8037 6.48608 51.3506 7.00562 51.7412 7.71655C52.1318 8.41968 52.3271 9.33374 52.3271 10.4587V19.0017H48.7529V11.3494C48.7529 10.4119 48.5811 9.70483 48.2373 9.22827C47.8936 8.75171 47.3623 8.51343 46.6436 8.51343C45.9248 8.51343 45.3584 8.6814 44.9443 9.01733C44.5303 9.34546 44.2373 9.83374 44.0654 10.4822C43.8936 11.1228 43.8076 11.908 43.8076 12.8376V19.0017H40.2334V0.767334H43.8076ZM59.5811 5.90015V19.0017H56.0068V5.90015H59.5811ZM57.7998 0.767334C58.3311 0.767334 58.7881 0.892334 59.1709 1.14233C59.5537 1.38452 59.7451 1.84155 59.7451 2.51343C59.7451 3.17749 59.5537 3.63843 59.1709 3.89624C58.7881 4.14624 58.3311 4.27124 57.7998 4.27124C57.2607 4.27124 56.7998 4.14624 56.417 3.89624C56.042 3.63843 55.8545 3.17749 55.8545 2.51343C55.8545 1.84155 56.042 1.38452 56.417 1.14233C56.7998 0.892334 57.2607 0.767334 57.7998 0.767334ZM75.249 12.4275C75.249 13.5212 75.1006 14.49 74.8037 15.3337C74.5146 16.1775 74.0889 16.8923 73.5264 17.4783C72.9717 18.0564 72.2998 18.4939 71.5107 18.7908C70.7295 19.0876 69.8467 19.2361 68.8623 19.2361C67.9404 19.2361 67.0928 19.0876 66.3193 18.7908C65.5537 18.4939 64.8857 18.0564 64.3154 17.4783C63.7529 16.8923 63.3154 16.1775 63.0029 15.3337C62.6982 14.49 62.5459 13.5212 62.5459 12.4275C62.5459 10.9744 62.8037 9.7439 63.3193 8.73608C63.835 7.72827 64.5693 6.96265 65.5225 6.43921C66.4756 5.91577 67.6123 5.65405 68.9326 5.65405C70.1592 5.65405 71.2451 5.91577 72.1904 6.43921C73.1436 6.96265 73.8896 7.72827 74.4287 8.73608C74.9756 9.7439 75.249 10.9744 75.249 12.4275ZM66.1904 12.4275C66.1904 13.2869 66.2842 14.0095 66.4717 14.5955C66.6592 15.1814 66.9521 15.6228 67.3506 15.9197C67.749 16.2166 68.2686 16.365 68.9092 16.365C69.542 16.365 70.0537 16.2166 70.4443 15.9197C70.8428 15.6228 71.1318 15.1814 71.3115 14.5955C71.499 14.0095 71.5928 13.2869 71.5928 12.4275C71.5928 11.5603 71.499 10.8416 71.3115 10.2712C71.1318 9.69312 70.8428 9.25952 70.4443 8.97046C70.0459 8.6814 69.5264 8.53687 68.8857 8.53687C67.9404 8.53687 67.2529 8.86108 66.8232 9.50952C66.4014 10.158 66.1904 11.1306 66.1904 12.4275ZM85.6436 5.65405C87.042 5.65405 88.167 6.03687 89.0186 6.80249C89.8701 7.5603 90.2959 8.77905 90.2959 10.4587V19.0017H86.7217V11.3494C86.7217 10.4119 86.5498 9.70483 86.2061 9.22827C85.8701 8.75171 85.3389 8.51343 84.6123 8.51343C83.5186 8.51343 82.7725 8.88452 82.374 9.62671C81.9756 10.3689 81.7764 11.4392 81.7764 12.8376V19.0017H78.2021V5.90015H80.9326L81.4131 7.57593H81.6123C81.8936 7.1228 82.2412 6.75562 82.6553 6.47437C83.0771 6.19312 83.542 5.98608 84.0498 5.85327C84.5654 5.72046 85.0967 5.65405 85.6436 5.65405ZM97.8311 19.0017H94.2568V1.8689H104.077V4.84546H97.8311V9.26343H103.644V12.2283H97.8311V19.0017ZM119.054 12.4275C119.054 13.5212 118.905 14.49 118.608 15.3337C118.319 16.1775 117.894 16.8923 117.331 17.4783C116.776 18.0564 116.104 18.4939 115.315 18.7908C114.534 19.0876 113.651 19.2361 112.667 19.2361C111.745 19.2361 110.897 19.0876 110.124 18.7908C109.358 18.4939 108.69 18.0564 108.12 17.4783C107.558 16.8923 107.12 16.1775 106.808 15.3337C106.503 14.49 106.351 13.5212 106.351 12.4275C106.351 10.9744 106.608 9.7439 107.124 8.73608C107.64 7.72827 108.374 6.96265 109.327 6.43921C110.28 5.91577 111.417 5.65405 112.737 5.65405C113.964 5.65405 115.05 5.91577 115.995 6.43921C116.948 6.96265 117.694 7.72827 118.233 8.73608C118.78 9.7439 119.054 10.9744 119.054 12.4275ZM109.995 12.4275C109.995 13.2869 110.089 14.0095 110.276 14.5955C110.464 15.1814 110.757 15.6228 111.155 15.9197C111.554 16.2166 112.073 16.365 112.714 16.365C113.347 16.365 113.858 16.2166 114.249 15.9197C114.647 15.6228 114.937 15.1814 115.116 14.5955C115.304 14.0095 115.397 13.2869 115.397 12.4275C115.397 11.5603 115.304 10.8416 115.116 10.2712C114.937 9.69312 114.647 9.25952 114.249 8.97046C113.851 8.6814 113.331 8.53687 112.69 8.53687C111.745 8.53687 111.058 8.86108 110.628 9.50952C110.206 10.158 109.995 11.1306 109.995 12.4275ZM129.319 5.65405C129.499 5.65405 129.706 5.66577 129.94 5.68921C130.183 5.70483 130.378 5.72827 130.526 5.75952L130.257 9.11108C130.14 9.07202 129.972 9.04468 129.753 9.02905C129.542 9.00562 129.358 8.9939 129.202 8.9939C128.741 8.9939 128.292 9.05249 127.854 9.16968C127.425 9.28687 127.038 9.47827 126.694 9.7439C126.351 10.0017 126.077 10.3455 125.874 10.7751C125.679 11.197 125.581 11.7166 125.581 12.3337V19.0017H122.007V5.90015H124.714L125.241 8.10327H125.417C125.675 7.65796 125.995 7.25171 126.378 6.88452C126.769 6.50952 127.21 6.21265 127.702 5.9939C128.202 5.76733 128.741 5.65405 129.319 5.65405ZM143.675 19.0017L142.433 14.9236H136.187L134.944 19.0017H131.03L137.077 1.79858H141.519L147.589 19.0017H143.675ZM141.565 11.8767L140.323 7.89233C140.245 7.62671 140.14 7.28687 140.007 6.8728C139.882 6.45093 139.753 6.02515 139.62 5.59546C139.495 5.15796 139.394 4.77905 139.315 4.45874C139.237 4.77905 139.128 5.17749 138.987 5.65405C138.854 6.1228 138.726 6.56812 138.601 6.98999C138.476 7.41187 138.386 7.71265 138.331 7.89233L137.101 11.8767H141.565ZM153.05 19.0017H149.476V0.767334H153.05V19.0017ZM160.386 19.0017H156.812V0.767334H160.386V19.0017Z" fill="#3734A9"/>
</svg>
