<svg width="48" height="47" viewBox="0 0 48 47" fill="none" xmlns="http://www.w3.org/2000/svg">
<path d="M31.7204 23.4998C31.7204 19.3809 28.3693 16.0298 24.2505 16.0298C20.1316 16.0298 16.7805 19.3809 16.7805 23.4998C16.7805 27.6186 20.1316 30.9697 24.2505 30.9697C28.3693 30.9697 31.7204 27.6186 31.7204 23.4998ZM24.2506 24.818C23.5237 24.818 22.9324 24.2266 22.9324 23.4998C22.9324 22.7729 23.5237 22.1815 24.2506 22.1815C24.9774 22.1815 25.5688 22.7729 25.5688 23.4998C25.5688 24.2266 24.9774 24.818 24.2506 24.818Z" fill="#3734A9"/>
<path d="M21.439 28.471C22.2695 28.9424 23.2292 29.2121 24.2506 29.2121C25.2719 29.2121 26.2316 28.9424 27.0621 28.471M26.349 25.7464C27.1676 26.1039 27.8911 26.6647 28.4397 27.3794C29.3844 26.36 29.9629 24.9963 29.9629 23.4998C29.9629 20.3498 27.4002 17.7874 24.2506 17.7874C21.1006 17.7874 18.5382 20.3502 18.5382 23.4998C18.5382 24.9963 19.117 26.3596 20.0617 27.3791C20.6104 26.6648 21.3338 26.1036 22.1521 25.7464C21.551 25.1846 21.1747 24.3854 21.1747 23.4998C21.1747 21.8037 22.5545 20.4239 24.2506 20.4239M31.7204 23.4998C31.7204 19.3809 28.3693 16.0298 24.2505 16.0298C20.1316 16.0298 16.7805 19.3809 16.7805 23.4998C16.7805 27.6186 20.1316 30.9697 24.2505 30.9697C28.3693 30.9697 31.7204 27.6186 31.7204 23.4998ZM24.2506 24.818C23.5237 24.818 22.9324 24.2266 22.9324 23.4998C22.9324 22.7729 23.5237 22.1815 24.2506 22.1815C24.9774 22.1815 25.5688 22.7729 25.5688 23.4998C25.5688 24.2266 24.9774 24.818 24.2506 24.818Z" stroke="#3734A9" stroke-width="2"/>
<path d="M36.5541 23.4998C36.5541 16.7156 31.0348 11.1968 24.251 11.1968C17.4673 11.1968 11.948 16.716 11.948 23.4998C11.948 30.2836 17.4673 35.8029 24.251 35.8029C31.0348 35.8029 36.5541 30.2836 36.5541 23.4998ZM13.7044 23.4998C13.7044 17.6849 18.4353 12.954 24.2502 12.954C30.0652 12.954 34.796 17.6849 34.796 23.4998C34.796 29.3148 30.0652 34.0456 24.2502 34.0456C18.4353 34.0456 13.7044 29.3148 13.7044 23.4998Z" fill="#3734A9" stroke="#3734A9" stroke-width="2"/>
<path d="M6.99191 14.5499C7.13033 14.6299 7.2813 14.6679 7.43038 14.6679C7.73419 14.6679 8.02954 14.5104 8.19213 14.2282C10.9855 9.38998 15.879 6.04626 21.379 5.1801C21.8234 6.33327 22.943 7.15339 24.2505 7.15339C25.9466 7.15339 27.3264 5.77364 27.3264 4.07755C27.3264 2.38146 25.9466 1.00171 24.2505 1.00171C22.7792 1.00171 21.5456 2.0403 21.2447 3.42254C18.3408 3.85881 15.5289 4.93383 13.078 6.54957C10.456 8.27803 8.24009 10.6291 6.66983 13.3488C6.42722 13.7694 6.57128 14.3067 6.99154 14.5493L6.99191 14.5499ZM24.2509 2.7595C24.9778 2.7595 25.5691 3.35082 25.5691 4.0777C25.5691 4.80459 24.9778 5.39591 24.2509 5.39591C23.524 5.39591 22.9327 4.80459 22.9327 4.0777C22.9327 3.35082 23.524 2.7595 24.2509 2.7595Z" fill="#3734A9" stroke="#3734A9" stroke-width="2"/>
<path d="M14.9791 39.5583C10.1406 36.7649 6.79636 31.8715 5.93181 26.3714C7.08465 25.9273 7.9051 24.8074 7.9051 23.4999C7.9051 21.8038 6.52534 20.4241 4.82926 20.4241C3.13317 20.4241 1.75342 21.8038 1.75342 23.4999C1.75342 24.9713 2.79201 26.2048 4.17425 26.5054C4.61052 29.4093 5.68554 32.2212 7.30127 34.6721C9.02974 37.2941 11.3808 39.51 14.1005 41.0803C14.2389 41.1603 14.3899 41.1983 14.539 41.1983C14.8428 41.1983 15.1381 41.0407 15.3007 40.7586C15.5433 40.3383 15.3993 39.801 14.979 39.5581L14.9791 39.5583ZM3.51089 23.4998C3.51089 22.7728 4.10221 22.1815 4.8291 22.1815C5.55598 22.1815 6.1473 22.7729 6.1473 23.4998C6.1473 24.2266 5.55598 24.818 4.8291 24.818C4.10221 24.818 3.51089 24.2266 3.51089 23.4998Z" fill="#3734A9" stroke="#3734A9" stroke-width="2"/>
<path d="M41.5095 32.4501C41.0889 32.2075 40.5516 32.3516 40.309 32.7718C37.5156 37.6104 32.6222 40.9546 27.1222 41.8199C26.678 40.6671 25.5582 39.8466 24.2506 39.8466C22.5546 39.8466 21.1748 41.2264 21.1748 42.9225C21.1748 44.6186 22.5546 45.9983 24.2506 45.9983C25.722 45.9983 26.9555 44.9597 27.2565 43.5775C30.1604 43.1412 32.9723 42.0662 35.4232 40.4504C38.0452 38.722 40.2611 36.3709 41.8313 33.6512C42.0739 33.231 41.9299 32.6933 41.5096 32.4507L41.5095 32.4501ZM24.2506 44.2405C23.5237 44.2405 22.9324 43.6492 22.9324 42.9223C22.9324 42.1954 23.5237 41.6041 24.2506 41.6041C24.9774 41.6041 25.5688 42.1954 25.5688 42.9223C25.5688 43.6492 24.9774 44.2405 24.2506 44.2405Z" fill="#3734A9" stroke="#3734A9" stroke-width="2"/>
<path d="M44.3275 20.4939C43.8913 17.59 42.8163 14.7781 41.2005 12.3273C39.4721 9.70523 37.121 7.48936 34.4013 5.9191C33.9807 5.67649 33.4434 5.82055 33.2008 6.24081C32.9582 6.66108 33.1023 7.19841 33.5225 7.44131C38.3611 10.2347 41.7053 15.1281 42.5706 20.6282C41.4178 21.0723 40.5973 22.1922 40.5973 23.4997C40.5973 25.1958 41.9771 26.5755 43.6732 26.5755C45.3693 26.5755 46.749 25.1958 46.749 23.4997C46.749 22.0283 45.7104 20.7948 44.3282 20.4938L44.3275 20.4939ZM43.6725 24.8177C42.9456 24.8177 42.3543 24.2263 42.3543 23.4995C42.3543 22.7726 42.9456 22.1813 43.6725 22.1813C44.3994 22.1813 44.9907 22.7726 44.9907 23.4995C44.9907 24.2263 44.3994 24.8177 43.6725 24.8177Z" fill="#3734A9" stroke="#3734A9" stroke-width="2"/>
</svg>
